<svg role="img" viewBox="0 0 24 24" xmlns="http://www.w3.org/2000/svg"><title>LangChain</title><path d="M6.0988 5.9175C2.7359 5.9175 0 8.6462 0 12s2.736 6.0825 6.0988 6.0825h11.8024C21.2641 18.0825 24 15.3538 24 12s-2.736-6.0825-6.0988-6.0825ZM5.9774 7.851c.493.0124 1.02.2496 1.273.6228.3673.4592.4778 1.0668.8944 1.4932.5604.6118 1.199 1.1505 1.7161 1.802.4892.5954.8386 1.2937 1.1436 1.9975.1244.2335.1257.5202.31.7197.0908.1204.5346.4483.4383.5645.0555.1204.4702.286.3263.4027-.1944.04-.4129.0476-.5616-.1074-.0549.126-.183.0596-.2819.0432a4 4 0 0 0-.025.0736c-.3288.0219-.5754-.3126-.732-.565-.3111-.168-.6642-.2702-.982-.446-.0182.2895.0452.6485-.231.8353-.014.5565.8436.0656.9222.4804-.061.0067-.1286-.0095-.1774.0373-.2239.2172-.4805-.1645-.7385-.007-.3464.174-.3808.3161-.8096.352-.0237-.0359-.0143-.0592.0059-.0811.1207-.1399.1295-.3046.3356-.3643-.2836-.8295-.5713-1.6591-.8636-2.4825-.7797-1.8507-1.6264-3.6758-2.4967-5.4862-.3444-.7157-.6947-1.4281-1.0488-2.1386a28.8838 28.8838 0 0 0-.9893-1.8837 16.1996 16.1996 0 0 0-.8634-1.4145 7.0776 7.0776 0 0 0-.2916-.4247c-.1111-.1475-.2347-.2846-.3695-.409-.2696-.2486-.5716-.4582-.9006-.612z"/></svg>