<svg width="237px" height="237px" viewBox="0 -20 237 237" version="1.1" xmlns="http://www.w3.org/2000/svg" xmlns:xlink="http://www.w3.org/1999/xlink">
 <!-- Generator: Sketch 64 (93537) - https://sketch.com -->
 <title>
  lockup-vert-dark
 </title>
 <desc>
  Created with Sketch.
 </desc>
 <g id="Logos" stroke="none" stroke-width="1" fill="none" fill-rule="evenodd">
  <g id="wall" transform="translate(-136.000000, -104.000000)" fill="#0A0A0A" fill-rule="nonzero">
   <g id="lockup-vert-dark" transform="translate(136.000000, 104.000000)">
    <path d="M119.830764,0 L176.842105,56.9803753 L175.795895,58.304 L176.842105,59.1440086 L165.715895,72.368 L119.549641,195.536842 L91.4917096,107.823258 L91.3788947,107.619 L90.4421053,107.385556 L90.6878947,106.363 L63.1578947,56.2913199 L119.830764,0 Z M121.012895,11.52 L98.3758947,105.353 L117.725895,165.847 L117.726316,118.063869 L159.306895,68.642 L160.203266,66.2510445 L167.072344,57.5539546 L121.012895,11.52 Z M151.637895,89.1 L125.098077,120.64542 L125.097895,159.906 L151.637895,89.1 Z M111.981895,18.101 L72.2186798,57.5976554 L93.2328947,95.817 L111.981895,18.101 Z" id="polyLogo">
    </path>
   </g>
  </g>
 </g>
</svg>